<mxfile host="app.diagrams.net" modified="2023-09-15T10:45:31.448Z" agent="Mozilla/5.0 (Windows NT 10.0; Win64; x64) AppleWebKit/537.36 (KHTML, like Gecko) Chrome/116.0.0.0 Safari/537.36" etag="XxLIg2SpTTvOtN9wTAkR" version="21.7.5" type="device">
  <diagram name="Page-1" id="nF6S4GoUU3T1bQp-5HCN">
    <mxGraphModel dx="2890" dy="1234" grid="1" gridSize="10" guides="1" tooltips="1" connect="1" arrows="1" fold="1" page="1" pageScale="1" pageWidth="827" pageHeight="1169" math="0" shadow="0">
      <root>
        <mxCell id="0" />
        <mxCell id="1" parent="0" />
        <mxCell id="NvqPJ8NiP_3j-MuA9Z-s-73" value="" style="shape=image;verticalLabelPosition=bottom;labelBackgroundColor=default;verticalAlign=top;aspect=fixed;imageAspect=0;image=data:image/png,iVBORw0KGgoAAAANSUhEUgAAA2UAAAC5CAYAAACoYpeaAAAAAXNSR0IArs4c6QAAAARnQU1BAACxjwv8YQUAAAAJcEhZcwAADsMAAA7DAcdvqGQAAFd2SURBVHhe7d0JXBTn/T/wz7C73AIiIKDcIAKKt+CF4n0l3vdfm6tN0hxNm+TXNGl/TdqmSVPTJL+kNUfTJlrN1URNjDHReMdE442KAnILKIfAAgu7sPOf2R1OYXcVcDH5vF+vfbGzz87Ms89853n2OzM7CHFxcSKIiIiIiIjILhyUv0RERERERGQHTMqIiIiIiIjsiEkZERERERGRHTEpIyIiIiIisiMmZURERERERHbEpIyIiIiIiMiOmJQRERERERHZEZMyIiIiIiIiO2JSRkREREREZEdMyoiIiIiIiOyISRkREREREZEdMSkjIiIiIiKyIyZlREREREREdsSkjIiIiIiIyI6YlBEREREREdmRys/P72nlOdGPjij4IHb+fVi6bDkSemfhyPlSpaRn6On1+zESRU+MfXAtlk8bBn8xD+k5V2EUBKX0h4Xx1/NYi78fU3ySZdx/qauxf+leTMroR001eBXumuqMY+//C3tP5aFG36CU9Aw9vX4/TgaUZp5BTkVfjJw/Fg7H9yNP98MclBh/PZG1+PvxxGdPoOozFBMXrkZk/TfILOlZ7cz9l7qe9f7Fd+K9mDfMHaU52aiqZ99zPbo1KRN9VXhzvAqZGQ0o7sJMWhT9MOnRv2Gs8UucuWRUXr25RNcojF9+PxYuWYZJSWMQ6lmJ/PQC1Io3JwBFx1CMXnY/Fi1ejuTk8Yjw1eHS+VzUdLD+0EV/xb3DivFNSpHyityOboi87VdY85PVmDF7HpIm+ePyrmMolbbV9S6/JxJj7sATD8Xj0p6TKO8g/lwGTMYEz3PYsu17lOtvXiyJvWKQvPIBzF+8FBPHJSDItQRZ6ZdhaFPPG6mfef94Sdk/OjcIu416CI+sDkPe4TOoNNq+7UXncARNvhMDk+cjZMgoeLhXQptfhHob48dnxosYMWs2QkbPbHq4aXehpMTGNujk+i3NLwgi6nUVKM8HgqaMgDFlJzIrbG+bnqAz8dccXzs63f/eqvFljT3jr7PxKcbdjV//z/2YMuN2TJze/EiaFou6bw/ikt72ZXWH6JX/hwd+slCpUyQq93yLouuInUa2jA/WOIbNwx33zoVb1m4cOZUD7U1qm86OH90Zn92ts/2PKGow8t51+OmKea3i26/4U5wrurmfXzPwpxg9IxgV51Khb2dea+Xt6e7+2Zb+RV9TD69BczBnxgCUnz6O4jqlgKzib8pugCg6YuD8+zDeOxO7/vUC1n/4DcShd2PehL7KO7pfyKx7MTWwAPvefQHvbNiJmojVWDCln1JqI48xmDDRAxc/eBavPfcUXlv7AS4qRV2y/FuArroGoos7XJXpm0EUPTB0yX0Y4XQCX7zxF2zYchLOY+/F7aM9lXc0s0f9GomqaEya4osT73+MvA6OdsXf+SZ+Ni1AmTKT948+4+9EkGc2Mre9itN7jkCMXI2owb7KO6wTpC8XutNv4vv1f2p6pGfYlmB2dv02z+/UC27qatRWKdO3iJ4Sf7dqfFnTY+LvRuMz7UO88fxv8epzv8PXF0WUfvOK9FwaH55/EyeqlffY0cVP/2Cqz6tvfo0y5TV7EDUxmL5qCmp3/hX/+XQfCqps+9LcWZ3df29afPZY9Uh573fmGJIe63dkoLb6HNJzlWIruurziw6RCB7ZB0W7tkHbcG3sWCuXtdc/dhWr/bOF/qW++JT03fEv2JIVgbnLJ6KXKColZE2HZ8pEtYA5QzT4WbwKiyNUiHOR+urLRtRIg5koZezLJjtieoMR31Wa3x89yBHP9RPxWZEIsa8abyWrsSRIBbXaAeOj1VggPeb7AftzjNDJy1AJmCkt/8EhKiwMU2GARsT5EhG1bY70tM8NoWMno5f2KiLnPYJ5c6chxr8GuWdzms7kiK4RGLf0fsxbvNR0pie8txZ5Fy6hFkq5+yBMu/NhLFi0DFOmTkX8gN4oT09BaZ1S7hiKxOUPYPHylZg8cQxC3MuQnV4IvWn+cCQsHI3iLS/im4sVqCrJQL5mKKZG1eLbo1ndfn2t3CnHTZsP1ZG/YefpElSXZSOv0gWBruW4kFkCUW7fXoMx4+5HsGjhPAyLEFBlCEWIQ0qrM2XwisOYcc449/4OZEmdd62uzlR3m5ZvsX2kOjpHYuKaX2LJ4gUYHiEFWtS9WD6oCIfOXoEYvhK/unskPAatwaJkdxRWjsL/e/gOxKkzcDqjzOryG48EjfPUYsD8X+D2OVNN2z/nbC500vaXj/Q+IR/pHR4MtWMIhihHfJOi63HicDr0LbaP6BmDxOGOyNhzEleV18XgJXj4N1Og238YV5TOUIhchV8+PhFa6bViow2f3zEYo6SBc9GSFVL8jZPirwp5afnmM6kOMUi4LQjZH76JY/mV0F45j6teyRjnf6n19pG0Vz/rzPuHR1V5u+1jK5/J92BU2SZ8csS8zdvjEz8H/Sq/xomsGuUVWQj6TRyOmgP/QH5BJfTlWdCqBiO8fy3yL+R2uKyW3AeYz1zkZ15BfV2N6WG0+aBfZ9dv4/yecUiY4Im8Lw+hsAsv0ej58dcYXxU3Kb52dRBf66TtU2GH+LKmh8TfDcanYNSjTlcNXY0OfYbMRb/SL3BQiotaXS0alPgKX/I33D3cCeoxd2D5otsxTB4/01qMnxbGX2v9t2l+C+OzUS+PVVL9VGEYMc4b+V9fe6bM4vptGB+s7V8yp2HLMD8iDVs2fQdti9d7/v57k+Kz23Su/5Gr16CXkgkphhB0O5bM9cGpf72M7wpt7QC65vO7Dv9/CKj8L9JSy8yVasNauaz9/vEm9c9W+hdBMKAkB4iaNwFOp/Yit6b1e0SNAx6arMHdgcBJKS+otLHdfujaPVMmSllt4mAN5rgYsflYPf58tAHVfVW4I8TGE2slBvxhrwG/Pd2A2roGvL1Hj99Kj99JyyqXiuWkLmagGos9RXx0pB7PS+/ThGhwR/D1nbgLHBiEvK0vYf1/9qAuehVmj+1jel0U1Yhd9DDGeqVj74YX8c76r6CLWYPZic1HkoImr8RIx1PY+trv8fq6f+OccQSmJ8eaykTRAWFz70eSVyp2vPEs/r1xN/Tx92DeGC9TuRz0Ts7SwFDTvBNXS0mN4OQCZ2XaElGMwown1+HJ59s87hgPB5uOKFShtKQafQcmoI/a/H7t6f/i468vKEmVGgNvuwsjXFLx+Ztr8cl3rgiLcjK9TyaGLcND0vqeenQOfDAQc/70unn9z9yFKNP6rS1fbp/7Omwfefv2m3YnJvjl4uu3/4atx3sjaoCjqayJV29od76J4w2TMCP6PD7+7AL6JCVDyt9saH+zwOh+yN4sbf+NB2GIWYWZCcr2Tf8E/3rxaaz75ATqqo9h69rfY530eH3jAbQ80CsKanj7+0FdWY4K5TWTnBNIr4pGdExznfvFxsEl4xTS9dbrJ5eHzL4P0/pfNp9p/M8u1Mb8BPOSzGdSBfEkPv3DH7E339wJiaIKzi6OMNS1PsffYf1sFBgdhJwtL2P9pm9Q37J9bCC6jMbkUa6oj7wXjz/3Mu77yXQEOppjQR2/Bvf8bDUSorxRXVGKirI6BIxegqWPPIREb/k9rlA56mDQNe8fhlqd9C3GBSpl2hK5/UzfTTwSEbvyT0i867cYPGkknB3M67euc+u3ef6aq9AavOET6CptU1vrZoNbJP5uXnzpO4iv5jNbNze+rOkh8ddd8alQh0dCfehNvPPGRmQ4jcPt80bDUVqPLeOvrMP+W2JpfLbG6vqtjA/W9q9Gffv1B/IuoqDtF12b9l9L42d37783KT67WWf6H5noPQlLVk+A4chHOJJ/PdfXdf7zi47DEBLjAmP/O5F477MYNjMZ7prmfdRSufX+0eza9mkdv5ZY6p+b2NK/VKYhvywQ/v3b+W6vFuAlfS11lL40uygvUQdJmXxpx+ETejxwqAGHSkXklBnx9WUg1KtN59MBoUFAfpUoZcbmDVWiNSJPmpZ/DNh4FmmQr4BzmQYcuioi64qU/F0SMdCcU9ms9NR2HLuYi8LUz7H3eAUCw+Sv9HL965G64RdY+/ePcCYjG5cv7sPR8zoEBIeYymWubm6oK76ArEuFKMk9hd1vPIbXtqQqpf0RGeWG9L0f40JuPorSdmPf8VIER0Yr5Y08MeKutbhvlnm9tsvGwbf+iLdebvPYesyms2yCYMSFLzYhw2cRfvbk77B80SwM7NsyrAMQFOSKrIPv4Wx2Li6d+hjHs1ts6rwvsEle37v7pSQ5E/v/rqz/H5uRIxVbX77UPpHuFtrHG+Hhvsg/9CFOZGYj9+iHOJnfnBSa1FxCdmYqMnJrUVmQgkspabgidWoupl7NtvYvPf2Fefuf24pDZw3wDwo2vS7or6K4qABXrspHj2pQUXjJNF1cVmVOKtXjsUJOSp//Ox6c3gtHNm83/Y6u2UWkSfESPijelCSLYiAGRHsj59xJ5Sybtfr1RURkH2Tv24jTmbm4nL4HX23fLw2MXu12Xqq+UzA2rgInvjPHn/X62aYsZQeOZuSg8OyWVu1jC/+JcxBScQR7/v00Xn31I1wJXITFcwaa6u9w5TwyKvpgyNJfY/qAevhPeQIrp0RJYZ2KAoOyABMP9J3zDIYlhinTtpJ/NwO49fNF+YF/4uy+Y0DEUkTEeCjltrrR9TeyPL9Q+y12bruCQfe9jCdfeB1P/moefDsanK5LR/F3okfFX1nKFz/y+LLGvvHXffFp5pBzCHtPZ+JyzhF8tfcMHEOjpMiT1mvD+CvrqP+WWR6fLbO2fmvjg63jj5OzM/S17V3PacP+a3H8bNx/N3Xz+NG98dndOtP/mLiqocvLBIY+iAcfWoSQtkmHVTf++d2HT4eX9jhytv8F33/8Kap95yJmTFTT9rVUbmv/eG37BCkl1lnqnxvZ1r/UoK5WkPLVa9MuQdeAF3Ya8PjeeqS3G58/Tu0mZbLevir8zyQN3pjliLdnO+KxEAGaLjwM4qYWUaNXJiRV0nMnRwGqdjqdjtTpmi9m1dXUQCOl3I1nmnrFLMaqx9fi18+Zz0KtTPCCSt185Cr72GEYht6Lhx99HEuWLkFiXCA0Tet2gqOTI+LWKGeQpMc9yf5QaZzanMmSOsL3/oD1OzOUadvIp3Wri6VBQB4IWj6u6pR3WCdUfI8ta3+Dd7YcRonbCMx9+AlMDW/8fM5S/Q2orTbvofIPM3W6WtNzmVBfiVJpfVdKtKiHHtrGQeny1aZL+ywv31r79IKLq4jqSvPxOXmQrKzUmp5bJq3btHrb2r+2pnmZdXW1UEvlNmk4hu1yEvrqC/jkuIhRsyfBo8Vy5fbKTjkD44AhCJNj3mcYIn0ykZaiXKtrtX7u0uc3SDHZHOAVJz/A5r1p11wGILrGYuadc6Da/w725ylH3qzUTyYGLcTPlXWbHn/+GWLavEdX3Xx8tPY62kcUB2JUogOObd6GnEodagoPYfuec+gVNxzyrwr1RUew94OX8da6Lbgq7YJVlQfwn78+iw+37EKutuXnq8SVnWuR8r008F0XI8oOvYqTH29AQV42tBe/QHZ6DTwDQpVyW93o+htZnl9UD0HSjCDkbXsZ/3pJ2l7r93TJb1w6jr/GeLd//MkYX9bYN/66Kz4byQlJ40HEhqz92LkvBY0jsrXxV2ap/7Y8Pltny/o7ZuP438EXyVtl/+3u+OyM7hzfGgn5u/DfN9fireeew/cO0zFlfPNvwmxZ/41+fvlKqYAYBxQc/AqV1TrUlx7BxWNpcAyNh5sN5bb2j93VPze6nv5FPtHTHr1eREkXXvr/Q9BuUiY6OGDZcBXUBQ34y0EDnt5vwDuX2tupeyZRNQRTViRBdXoD1r8iBYvUQW071fiF2kyftglvvPAKdh5Nh1YThoTVT2H15EClVKbDhc3meU2Pl57B658cveZMllFXiZrrDKrOX75oJhi1KDy9Ezvf/TM2HAASpo6D83XMb43l5Vtunw72wetgW/vfCEHUoUJOQvMv4kxKJup9A+GjlDVqyDiJiw5xiI5wgMegQfDNO4nUVnll5+snqoMx4a57EVWwER/syERDY9vZUD8U7sIHjeuWH6/8t+kmLZ3WJwz+bmW4WqJMS3SlZahzcWu6zEB0CEXyHSvhlvpPfF87A8sWD2s39kS9lPh38CPljshfagxlmajWNh9IqJe+ADo4Xf9lWDey/pYszu/ZDz6uBbj43TkUyturpLJpG3ZW6/iL63nx1xk/oPiyxq7x143x2ZZQcQ7f708x/W7JlvHXGuvjc8e6Yv227F+iUYoVof3j2j1+/FB0a3x2RneOb20IxgJk5Wjh07dFymHj+m/o83uEwNW1HLXyb3kU9ZVX0eDsBo08Ya1cYmv/eENs6J9NbOpfBNMuIorNl3qSZe33KE4CAjRGHM5sQKZWlLJvI6pabW9pWg+4Su+Ryb9B66UGqg3tDJrK37aqpUTGtcWBK3fpeZ2UNV/PoOHk4q48A1xcXWHQ15o7NSlYfF1ycW7fSVOwXCksRK2xMZzl+gpQSQEulF/Amf1bsWPjC9i4+wr6DYgxXRMv1QT6Oic4GC43ncUq1zlA3VS3atTVusLZtbn53NxcAUOdNKctOnf5oijEYsrP78NIX3PrypcbFpdckXZmT9ORFHP9NXB2M39m+fO6uNjyazcz25bvaKF9zKes5W0ik9fvqjy3jbX2t5G0LTuKv0YOUr2camulIbKN+jO4kOaIyLjBiB4YhqLUE6hqWr/1+KjVaaTP33xkqveoNVg+NbrpS58o9MGQVQ8iseFzbNp4GNoOPltH9Ws829m4/uLLZU1nOTvNUC/t4X3h1+I68F4BAXCWeumryrTbyNswyuk77Dko7Wdf7oRu6EIkNn1nqkGD3gUal+b5Nc5Sdy7tH23vbye4eEOtbl1v+V819BqYDO/eza+rnVzQUFd9zZHi9nVu/TbPXy3FOaTtY94pular+AvvcfHXKV0WX82Xbtzc+LKmh8SfDfGpcusDN8eu+MwtWBl/rbE+Pis66txtXX+H44Nt4091tRbOHtL2a1mnRlbHD0vjp6377wM3uP/epPjshO4c30THBCz47aNI9FHaUoo3JydHGOvrTdMyy+vvZPs1yOvxhZtv8/yO3n5QaUthOkxkrVxiuX/sJBv6ZxObxj9v9PIwoKqy+QAYWdbc6i3ViiiSkqYJA1QI7yVgUIgG01vc7VM+FXm2WER4qAZJ3gIiAtSYGwCkXmmTDUs9QblGwIi+DghyF9DfuTE4jTgjzR8brsEYaWAM83PAgn4CUltk5rbwGXobRkQEIyBmDiYN90JBtnIso7wAJbWhGDJ9NAL9gxGRuBoJkS07TmcMXf0iHrhzNiKDAtAnIBaxYd7QVZTAfMFfPjLSKxA+cSUGhfVH34gJmHv/k5gR3xh9ObiYYcSgWcsRFyavfyZmjQlCQfo5mzqOTl++aLyMKgxC0sL5GBgi128c5kyKRVXmeeX0cQHy8moQNn4F4kKD0W/IYoy8nsuerS5fap8MS+1Tgvw8LfqPmokgVxWcgqZjSOj1HCmx1v42Ki9HlUs4ouPC4OsfCF/PaxNTZzc3ONRoTT/wbkkQGpB2JhWukXMQH1yE9NNSUtrEWv2KpPYpQ5hUHh8eDP8BUzBtRgKcDcqdJUVHhM59GLODMrHzs5Oo790Xvfv4oXdvqS5tBviO6tetKk8gNacXhi1cjSHhoQgcdBsWTA5F/tFvUaLEd/Xht7HuHx8hR+onjEU78OFLr+FAgalIko+r+SJ8ExfAx78/3EOmIHxQICrzzTeKaSS6jkHsmt8hYfltcGv1uWuhDkzGgEmz4O0bAPfQaQiOckV5frZSbiYPpkMjVFgaIsCl1fydXb9t80OnRU2DG1ybjw210nH9rPtBx1+Xxdd8O8WXNT0j/qzGp3sSVjz1HB751SIEXGd8WmR1/LXG2visqChDpTEIkSNC4C3Hbx9v881abF1/h+ODbePPlYwM6MKGIradYcnq/mtx/Gzcf1dY2X+zbnD/vTnx2Zn+r1vVZaFYG4nE22cgon8QgocuxYQ4IPOCrZchdrL9qlNQXOgG/0lL4RsQDPewGRggxXBl6vemO5NbLZcXYbF/7CQb+mcTa/2PRBUxApEuGcjOvPb7nxwfM0dr8OxIFbx7UnzYWbu3xJd2e2RrpR0qXIW54Q6IUok4WCYlZ9Jf+Zb3svKrIrS9HDAvWoVkXwE5F+uxIU9snZTUSe9zcsCsgSrMjlBjvJMR2+T5pfcUl0nv9VJh3gAHJEtJW3FuPd6RNtz13BLf4fy3cE/6CSYnhEKf+l9s+yLVdEt8QSxCQbEHBoyfjfFJieivScGp3ACEa1LxTUqhtPp6XM4vk5K66UiaOgsJo+PhpT2M7Zt3mW65K1/ecjUrAw2hEzFx+hyMGByIujPvY+uXadJHkssbUHIxC0L4eEyQ5h81yB/Vp6XyHedvyj+PFgQdCtJy4TIgGWOnzMTI+BAYs7bh061HoDXK9TOiJLsArrGTkTQ5GVEeaUgt7Idgoc0t8d2iMaqdWwpbX7619hFRVngVPgkLMWP2bUiMrkJWnjf8Gk5CviU+eg/GmEEizhw4A3XsdARr9+D05SAMTfZD0a7DuCKFiKXlN27/Xnnbm/45omfMNAzWnDVt3ybaQilGh2PsrNswbsJkxHvkti6XiP4jMD7OGbnHT6FU37pjaCh3RPDsSQi9+g12fCXFlhKbtnz+8uyLqOs/BuOnzMao+ADoUj7AZ1+lKfHRB0PnzkOEbyAGJk5BwgTzY3SsgAsHz7U4omq5fh1r2T7mY3fttk8HBKEGl1Jz4Rg5Xtr+MzA8xgvl32/All0ZTbdslg8s1NWZly1/3rrq5rMM8v5RU5ADBCQieNQUBIT7QX9xM9KPpLf+55qCN7xi4uBcnYqi1CzUt2hfnfQFWeyfhJAEaf5gL+jOf4SMU/kwKus30ahwR6IKYZVG7ChVXpN0fv3W55cHFKegUUhI9EPJwT3Irm6x3EYd1M9WPTf+bNz/OnCrx5c1PSH+bIpPlQ8ipLHPszIFx49kNMVXMwcEDJ+L/pV7cfRiq2vv0DtuBmIEpT9vw9r4ay1+rI3PTeoLpJiMxMgZC5GUPBUJ4wfBeHoPcrSXraxf0cH4YG3/amQsuQQxegEmxRqQcSYTNW1uy99T99+bEZ8mnez/OtbZ/qca+RlX4Bk/U2r/6VLi4YTC/e9g+7eFTZ/Rks63nw7anHw4BErzj0xGQIgnaqX+J+1Ylqn/sVZuXkbH/ePN6J9t6V8cPIZi9prb4XZsPb44Yz6g0IrGAYviVXAubMDnXflj11ucEBcXZ+s3PaLrIt+S1713LxgqytB/4UtYgH/ixY/OKaU9g6iOQNJP70NSmAe0h/6G/9tyQSnpGbqjfvK/RHj43knopUw3O4PPnnwNKW2+XPRUDn3VWDdKwLbdenzW5n+gdCdR9MTYB/+CKSF6lEiD1YYPj6C6ncHcXvXrSjcSf4yv7mUt/myNT+o8+f+NTbjzQYzzK8Wh9X/GgZye1c72HN/s1j//QPqf7mKxfZ6S2sfKb+Rs6V88Rt6DNfPiUXf8bby35SSqWiarCtFHhX8kOuBLKT4+vUXHx+7ApIy6hfy/Ytz6eMs/T4Sg8cOoVQ8i4OhTeGdflx4y6xLy/4Vx9PCROqlylGmb73jVU3R1/US1B3x83Nu5drkOFYUlXffbtG4WFqPB77wb8OjBhuv4x9qdJ28P1z5+0OiKUdnif2W1Za/6dbXrjb8fWnw9Jm2/sh5UZ2vxZ2t8UtcQRQ28ohLQt+oA0op6Xmx39fhhK7v1zz+Q/qe7dLZ9bOlf3CMTEKhNQXpRx7/TDRygwZ/7GvHY/vrWl0X+yDEpo24h31b1tmd+heHuAoz1VShN24GtG3agwMCdjzpPvnxi1ngNBucZ8NfcnteF9fT6kWXcfkQ3jvsPWSLfHHBSghMmlBjwp0zGR0tMyoiIiIiIiOyo/bsvEhERERER0U3BpIyIiIiIiMiOmJQRERERERHZEZMyIiIiIiIiO2JSRkREREREZEdMyoiIiIiIiOxI5efn97TynOhHRxR8EDv/PixdthwJvbNw5HzP+ufWPb1+P0ai6ImxD67F8mnD4C/mIT3nKow/0H9+yfjreazF348pPsky7r/U1di/dC8mZfSjphq8CndNdcax9/+FvafyUKNv/z/U20tPr9+PkwGlmWeQU9EXI+ePhcPx/cjT/TAHJcZfT2Qt/n488dkTqPoMxcSFqxFZ/w0yS3pWO3P/pa5nvX/xnXgv5g1zR2lONqrq2fdcj27959GirwpvDhPwypcGnOvCTFoU/TDp0T8i8JsH8d5hg/LqzSWKKvQZvgbLl4xBH8NBbPjfd5F9E48WiI6hGL14BRKj+8EVlSg8sw3bP/4GJcb26xC66K9Y5rQRf9l0UnlF/gxuiLztQcwdEwZPJxVE/RF8+Js3cUH6HNe7/J5IjLkDTyw34gML28Z1/GN4dPhZvPzKdmhv5vbrFYPkRUsxNNIPTnUlyPn+I3z2RQqq29ThRupn3j/+pOwfeuXV6yP0isXERUswLKovnOqv4tJJaft/egilDTbWwTkcQUnzERjcF+qGclSkf46Lh06h1sb48ZnxImKiVMqUWcnXjyE1tV6Zsqyz67dlflEchkXPL0fl6/+DXTm2Lben6Ez8NcfXAzfc/97q8WVNT4i/G41PMe5u/PqOBDi3iQVRzMBXzzyPw1W2L6s7RK/8Pywb7mJ6Lorn8Nlv/oaTN/DFz5bxwRrHsHlYc8d41B39DF/v2YeCm9Q2nR0/bkZ8dpfO9j+iqMHIe1/DnAGtf72TuvEefHTi5nx+0TUaIRPnwT/IF+p6af6Mr5B58Ah0yvzWyi3piv65kduoh/DzyVfw/ovvI6/NPmapf1H7DsHYWYuQ2D8fn//9LZyt6LY04weHvym7AaLojJDpj+GuxaHIPZ6KOuX1mylk1r2YGliAfe++gHc27ERNxGosmNJPKbWRxxhMmOiBix88i9eeewqvrf0AF5WiLln+LUBXXQPRxV1KPG8eUfTA0CX3YYTTCXzxxl+wYctJOI+9F7eP9lTe0cw+9fNBwpqfY6RrCr5863m8u2kPdNE/wYo5A+Agtu5c4+98Ez+bFqBMmYmiI/qMvxNBntnI3PYqTu85AjFyNaIG+yrvsE6QvkDoTr+J79f/qemRnmHbUd7Ort/m+Z16wU1djdoqZfoWYe/4u9Xjy5oeE383Gp9pH+KN53+LV5/7Hb6+KKL0m1ek59L48PybOFGtvMeOLn76B1N9Xn3za5Qpr9mDqInB9FVTULvzr/jPpzcxIevk/nvT4rPHqkfKe78zx5D0WL8jA7XV55CeqxRb0fn264N+M+9CoPNZZH76Ck7vOoj64GWIHRsBQer/rJW31F7/2FVEVTQmTfHFifc/viYhM7HQv9QXn5K+O/4FW7IiMHf5RPRqU2/qWIeXL4pqAXOGaPCzeBUWR6gQ5yL11ZeNqJEGM1EUsGyyI6Y3GPFdpfn90YMc8Vw/EZ8VSUHVV423ktVYEqSCWu2A8dFqLJAe8/2A/TlG6ORlqATMlJb/4BAVFoapMEAj4nyJiNoWR3M65obQsZPRS3sVkfMewby50xDjX4PcszmokeomE10jMG7p/Zi3eCmSk8cjvLcWeRcuoRZKufsgTLvzYSxYtAxTpk5F/IDeKE9PQWmdUu4YisTlD2Dx8pWYPHEMQtzLkJ1eCL1pfj8MmdAPqRtfw/6KCIyNB87tOYVym+reeXKnHDdtPlRH/oadp0tQXZaNvEoXBLqW40JmCUS5fXsNxoy7H8GihfMwLEJAlSEUIQ4p+CalSFmKxCsOY8Y549z7O5Aldd61ujrTtcE2Ld9i+0h1dI7ExDW/xJLFCzA8Qgq0qHuxfFARDp29AjF8JX5190h4DFqDRcnuKKwchf/38B2IU2fgdEaZ1eWbjwS9hHGeWgyY/wvcPmeqafvnnM2FTtr+8pHeJ/7nfkwZHgy1YwiGzLgdE6ffjqToepw4nA59i+0kesYgcbgjMvacxFXldTF4CR7+zRTo9h/GFeXIvRC5Cr98fCK00mvFRhs+v2MwRkkD56IlK6T4GyfFXxXy0vJRK8enQwwSbgtC9odv4lh+JbRXzuOqVzLG+V9qvX0k7dXPOvP+4VFV3m77WOUxDjPmeeHU66/jWGElqkozcaGqPyYn+SJn32lUtKiHT/wc9Kv8GieyapRXZCHoN3E4ag78A/kFldCXZ0GrGozw/rXIv5Br2r7WuA+YCTftLuRnXkF9XY3pYTQqhVZ1dv02zu8Zh4QJnsj78hAKu/ASjZ4ff43xVXGT4mtXB/G1Tto+FXaIL2t6SPzdYHwKRj3qdNXQ1ejQZ8hc9Cv9AgeluKjV1aJBia/wJX/D3cOdoB5zB5Yvuh3D5PEzrcX4aWH8tdZ/m+a3MD4b9fJYJdVPFYYR47yR//W3KGpzBsHi+m0YH6ztXzKnYcswPyINWzZ9B22L13v+/nuT4rPbdK7/kavXoJeSCSmGEHQ7lsz1wal/vYzvCm3tADr5+d0SEC7tl5c3v4OiMi30FTkoqwlE6BBvlJ88hzor5S2/v7TfP3ayf1b4TL4Ho8o24ZMj5u9817DSvwiCASU5QNS8CXA6tRe5Na3fI2oc8NBkDe4OBE5KeUFlt8fNraHdM2WilNUmDtZgjosRm4/V489HG1DdV4U7Qmw8sVZiwB/2GvDb0w2orWvA23v0+K30+J20rHKpWE7qYgaqsdhTxEdH6vG89D5NiAZ3BF/fibvAgUHI2/oS1v9nD+qiV2H22D6m10VRjdhFD2OsVzr2bngR76z/CrqYNZid2HwkKWjySox0PIWtr/0er6/7N84ZR2B6cqypTBQdEDb3fiR5pWLHG8/i3xt3Qx9/D+aN8TKVA4U4uP6fOHX5xi4NE8UozHhyHZ58vs3jjvHXHCluXxVKS6rRd2AC+qjN79ee/i8+/vqCklSpMfC2uzDCJRWfv7kWn3znirAoJ9P7ZGLYMjwkre+pR+fABwMx50+vm9f/zF2IMq3f2vLl9rmvw/aRt2+/aXdigl8uvn77b9h6vDeiBjiaypp49YZ255s43jAJM6LP4+PPLqBPUjKk/M2G9jcLjO6H7M3S9t94EIaYVZiZoGzf9E/wrxefxrpPTqCu+hi2rv091kmP1zceQMsDvaKghre/H9SV5ahQXjPJOYH0qmhExzTXuV9sHFwyTiFd2uTW6ieXh8y+D9P6XzafafzPLtTG/ATzkvqaygXxJD79wx+xN9/cCcmXwjq7OMJQ1/qca4f1s1FgdBBytryM9Zu+QX3L9rHG2RlSbWBoEd5GacKoUpk6DHX8Gtzzs9VIiPJGdUUpKsrqEDB6CZY+8hASveV4cYXKUQeDrnmQM9TqpG8xLmh9wVj75PYzfTfxSETsyj8h8a7fYvCkkXB2sGXfkHVu/TbPX3MVWoM3fAJdrzmC2Sm3SPzdvPjSdxBfzWe2bm58WdND4q+74lOhDo+E+tCbeOeNjchwGofb542Go7QeW8ZfWYf9t8TS+GyN1fVbGR+s7V+N+vbrD+RdREHbL7o27b+Wxs/u3n9vUnx2sxvufxSi9yQsWT0BhiMf4Uj+9Vzv1MnP7+Qkvc+AhhZXShsbDBAd1OaU3Eq59f7R7Nr2aR2/loguozF5lCvqI+/F48+9jPt+Mh2Bjm36EFv6l8o05JcFwr9/O9/t1QK8pK+ljs6A+WJkkrXTUtJOL33xPnxCjwcONeBQqYicMiO+vgyEerXpfDogNAjIrxKlzNi8oUq0RuRJ0/KPARvv0jLIV8C5TAMOXRWRdUVK/i6JGGjOqWxWemo7jl3MRWHq59h7vAKBYfJXern+9Ujd8Aus/ftHOJORjcsX9+HoeR0CgkNM5TJXNzfUFV9A1qVClOSewu43HsNrW1KV0v6IjHJD+t6PcSE3H0Vpu7HveCmCI6NNpYIgDzy2tUX7snHwrT/irZfbPLYes+kuNoJgxIUvNiHDZxF+9uTvsHzRLAzs2zKsAxAU5Iqsg+/hbHYuLp36GMezW2zqvC+wSV7fu/ulJDkT+/+urP8fm5EjFVtfvtQ+ke4dtg/gjfBwX+Qf+hAnMrORe/RDnMxvTgpNai4hOzMVGbm1qCxIwaWUNFyROjUXU69muf0blZ7+wrz9z23FobMG+AcFm14X9FdRXFSAK1flo0c1qCi8ZJouLqsyJ5Xq8VghJ6XP/x0PTu+FI5u3o7RVu19EmhQv4YPiTUmyKAZiQLQ3cs6dVI5SWatfX0RE9kH2vo04nZmLy+l78NX2/dLA6NVu56XqOwVj4ypw4jtz/Fmvn23KUnbgaEYOCs9uadU+VpVmSPtvOEbdPhY+ziqoPAdi8uRhcMjPRoFU7HDlPDIq+mDI0l9j+oB6+E95AiunRElhnYqCVpewe6DvnGcwLDFMmbaVIMUg4NbPF+UH/omz+44BEUsREeOhlNvqRtffyPL8Qu232LntCgbd9zKefOF1PPmrefDtki+/HcXfiR4Vf2UpX/zI48sa+8Zf98WnmUPOIew9nYnLOUfw1d4zcAyNkiJPWq8N46+so/5bZnl8tsza+q2ND7aOP07OztDXtnc9pw37r8Xxs3H/3dTN40f3xmd3u+H+p5GrGrq8TGDog3jwoUUIaZt0WHWDn78iC5U1oeg3bhRcNCoIblEIGx4PoTgXpisBrZTb2j9e2z5BSol1/hPnIKTiCPb8+2m8+upHuBK4CIvnDGwVf7b1LzWoqxWkfPXatEvQNeCFnQY8vrce6e3G549Tu0mZrLevCv8zSYM3Zjni7dmOeCxEgBQfXcZNLaKmxZHSKum5k6MA1XUMGnW65otZdTU10Egpd+OZpl4xi7Hq8bX49XPms1ArE7ygUjcfuco+dhiGoffi4Ucfx5KlS5AYFwhN07qd4OjkiLg1yhkk6XFPsj9UGicbz2RZJp/WrS6WBgF5IGj5uKpT3mGdUPE9tqz9Dd7ZchglbiMw9+EnMDW88fM5S/U3oLbavIfKSaROV2t6LhPqK1Eqre9KiRb10EPbOChdvtp0atzy8q21Ty+4uIqorjQfn5MHycpKrem5ZdK6Tau3rf1ra5qXWVdXC7VUbpOGY9guJ6GvvoBPjosYNXsSPFosV26v7JQzMA4YgjA55n2GIdInE2kpyrW6VuvnLn1+gxSTzQFecfIDbN6bds1lAKJrLGbeOQeq/e9gf55y5M1K/WRi0EL8XFm36fHnnyGmzXt01c3HR2uvo30EYyr2fLgHtQPvwP1/+Ad++dPlGNS/HucOfWuKD33REez94GW8tW4Lrkq7YFXlAfznr8/iwy27kKtt+fkqcWXnWqR8Lw1818WIskOv4uTHG1CQlw3txS+QnV4Dz4BQpdxWN7r+RpbnF9VDkDQjCHnbXsa/XpK21/o9XfIbl47jrzHe7R9/MsaXNfaNv+6Kz0ZyQtJ4ELEhaz927ksxf6mUWBt/ZZb6b8vjs3W2rL9jNo7/bfalRrfK/tvd8dkZ3Tm+NRLyd+G/b67FW889h+8dpmPK+ObfhNmy/hv9/IIxDbm7D8AQsgIjfvoCRt++AL5+BhSf+d60P1krt7V/vNH2EcWBGJXogGObtyGnUoeawkPYvuccesUNR8u7ClxP/yKf6GmPXi+ipAsv/f8haDcpEx0csGy4CuqCBvzloAFP7zfgnUvt7dQ9k6gagikrkqA6vQHrX5GCReqgtp1q/EJtpk/bhDdeeAU7j6ZDqwlDwuqnsHpyoFIq0+HCZvO8psdLz+D1T442DUKd0fnLF80EoxaFp3di57t/xoYDQMLUcXC+jvmtsbx8y+3T+WbqvvYXRB0q5CQ0/yLOpGSi3jcQPkpZo4aMk7joEIfoCAd4DBoE37yTSG2VV3a+fqI6GBPuuhdRBRvxwY5MNDS2nQ31Q+EufNC4bvnxyn+bbtLSFapT38dbf3gU//fs4/goTQO3gp04cLb5S4LoEIrkO1bCLfWf+L52BpYtHtZu7Il6KfG38Y56jeQvNYayTFRrmw8k1EtfAB2crv8yrBtZf0sW5/fsBx/XAlz87hwK5e1VUtm0DTurdfzF9bz466QfSnxZY9f468b4bEuoOIfv96eYfrdky/hrjfXxuWNdsX5b9i/RKMWK0P5x7R4/fii6NT47o5vHt5YEYwGycrTw6dsi5bBx/Tf6+Q05m3Hynf/FkfVP41yeBo4le5GX1Xyay1q5rf3jDekTBn+3MlwtUaYlutIy1Lm4tb7M0Kb+RUoypV1EFJsv9STL2u9RnAQEaIw4nNmATK0oZd9GVLXa3tK0NH66Su+Ryb9B66WWBlpDO4Om8retaik7dm1x4Mpdel4nZc3XM2g4ubgrzwAXV1cY9LXmTk0KFl+XXJzbd9IULFcKC1Fr1CjvlOsrQOXsBqH8As7s34odG1/Axt1X0G9AjOmaeKkm0Nc5wcFwueksVrnOAerrqJtlnbt8URRiMeXn92Gkr7l15csNi0uuAB6ecDO9ItdfA2c382eWP6+Li7PpuS1sW76jhfYxn7KWt4lMXr+r8tw2XdT+0rbsKP4aOUj1cqqtlYbINurP4EKaIyLjBiN6YBiKUk+gqmn91uon/4hYI33+5iNTvUetwfKp0U1f+kShD4asehCJDZ9j08bDHd7uvqP6NZ7tbFx/8eWyprOcXUWor0I5RmLSGA1OfvEVylos323kbRjl9B32HJT2sy93Qjd0IRKbvjPVoEHvAo1Lc/eicZa6c0Md2t7fTnDxhlrdut7yv2roNTAZ3r2bX1c7uaChrvqaI8Xt69z6bZ6/WopzSNvHvFN0rVbxF97j4q8rdD6+mi/duLnxZU0PiT8b4lPl1gdujl3xmVuwMv5aY318VnTUudu6/g7HB9vGn+pqLZw9pO3Xsk6NrI4flsZPW/ffB25w/71J8dkJ3Tm+iY4JWPDbR5Hoo7SlFG9OTo4w1jf/iMvy+jvbfmZCQ7UUCUMRGqdB0Xd7r7nJnaVyy/1jJxnqpW/4feHX4ndgvQIC4CxlaVeVaRObxj9v9PIwoKqy+QAYWdbc6i3ViiiSkqYJA1QI7yVgUIgG01vc7VM+FXm2WER4qAZJ3gIiAtSYGwCkXmmTDUs9QblGwIi+DghyF9DfuTGojDgjzR8brsEYaWAM83PAgn4CUltk5rbwGXobRkQEIyBmDiYN90JBtnIso7wAJbWhGDJ9NAL9gxGRuBoJkS07TmcMXf0iHrhzNiKDAtAnIBaxYd7QVZTAfCwiHxnpFQifuBKDwvqjb8QEzL3/ScyIN0ef/MNaN59A+PoHws/bVWpEV3gGSAOBf5/Wg0YHOn35ovEyqjAISQvnY2CIXL9xmDMpFlWZ55XTxwXIy6tB2PgViAsNRr8hizHyei57trp8qX0yOm4foAT5eVr0HzUTQa4qOAVNx5DQ6zlSYrn9bVZejiqXcETHhZm2la/ntYmps5sbHGq0rW4AIhOEBqSdSYVr5BzEBxch/bSUlDaxVr8iqX3KECaVx4cHw3/AFEybkQBng3JnSdERoXMfxuygTOz87CTqe/dF7z5+6N1bqkub+OmofjeDXM/oWbPgn7Ud+y+0uFhdUn34baz7x0fIkfoJY9EOfPjSazgg/yDIJB9X80X4Ji6Aj39/uIdMQfigQFTmm28U00h0HYPYNb9DwvLb4Nbqc9dCHZiMAZNmwds3AO6h0xAc5Yry/Gyl3EweTIdGqLA0RIBLq/k7u37b5odOi5oGN7g2HxtqpeP6WfdjiL/Ox9d8O8WXNT0j/qzGp3sSVjz1HB751SIEXGd8WmR1/LXG2visqChDpTEIkSNC4C3Hbx9v881abF1/h+ODbePPlYwM6MKGIradYcnq/mtx/Gzcf1dY2X+zbnD/vTnx2Zn+r1vVZaFYG4nE22cgon8QgocuxYQ4IPOCrZchdrb9zOT/l9YncSrcC3YiN7d1/yezVG65f+ykyhNIzemFYQtXY0h4KAIH3YYFk0ORf/RblFxP/yNRRYxApEsGsjOv/f4nx8fM0Ro8O1IF754UH3bW7i3xpd0e2VpphwpXYW64A6JUIg6WScmZ9Fe+5b2s/KoIbS8HzItWIdlXQM7FemzIE1sfzaiT3ufkgFkDVZgdocZ4JyO2yfNL7ykuk97rpcK8AQ5IlpK24tx6vCNtuOu5Jb7D+W/hnvQTTE4IhT71v9j2RarplviCWISCYg8MGD8b45MS0V+TglO5AQjXpOKblEJp9fW4nF8mJXXTkTR1FhJGx8NLexjbN+8y3XJXvrzlalYGGkInYuL0ORgxOBB1Z97H1i/TpI8k1y8ASQ89jYXTkjEqNhBqx0AMHJuMkWP6onT3YVyW6tCdBEGHgrRcuAxIxtgpMzEyPgTGrG34dOsRaI1y/Y0oyS6Aa+xkJE1ORpRHGlIL+yFYaHNLfLdojGrnlsLWl2+5feTyssKr8ElYiBmzb0NidBWy8rzh13AS8i3x0XswxgwScebAGahjpyNYuwenLwdhaLIfinYdxhUpRCy3v3n798rbjjOXzDu7Z8w0DNacNW3fJtpCKUaHY+ys2zBuwmTEe+S2LpeI/iMwPs4ZucdPoVTfumNoKHdE8OxJCL36DXZ8JcWWEpu2fP7y7Iuo6z8G46fMxqj4AOhSPsBnX6WZb2mMPhg6dx4ifKW4SZyChAnmx+hYARcOnmtxRNVy/TrWsn3Mx+7abR8rHPxnY/HCvjiz6R1caHP1j3xgoa7OvGz589ZVN59lkL+Q1BTkSLtJIoJHTUFAuB/0Fzcj/Ug66lvuG4I3vGLi4FydiqLULNS3aF+d9AVZ7J+EkARp/mAv6M5/hIxT+TCatr9Co8IdiSqEVRqxo1R5TdL59VufXx5QnIJGISHRDyUH9yC7usVyG3VQP1v13Pizcf+z4laNL2t6QvzZFJ8qH0RIY59nZQqOH8loiq9mDggYPhf9K/fi6MVW196hd9wMxAhKf96GtfHXWvxYG5+b1BdIMRmJkTMWIil5KhLGD4Lx9B7kaC9bWb+ig/HB2v7VyFhyCWL0AkyKNSDjTCZq2tyWv6fuvzcjPk062f91rHP9jyBUIz/jCjzjZ0rtP11KPJxQuP8dbP+2sOkzWtLZ9mvSZxoGJvmi+Kv3UNbyjvaNLJRb6h873z41uJSaC8fI8dL3vxkYHuOF8u83YMuujOZ/2WBD/+LgMRSz19wOt2Pr8cUZ8wGFVjQOWBSvgnNhAz7vyh+73uKEuLg4W7/pEV0X+Za87r17wVBRhv4LX8IC/BMvfnROKe0ZRHUEkn56H5LCPKA99Df835YLSknP0B31k/8lwsP3TkIvZbrZGXz25GtIafPloqdy6KvGulECtu3W47M2/wOlO4miJ8Y++BdMCdGjRBqsNnx4BNXtDOb2ql9XupH4Y3x1L2vxZ2t8UufJ/29swp0PYpxfKQ6t/zMO5PSsdrbn+Ga3/vkH0v90F4vt85TUPlZ+I2dL/+Ix8h6smRePuuNv470tJ1HVMllViD4q/CPRAV9K8fHpLTo+dgcmZdQt5P8V49bHW/55IgSNH0atehABR5/CO/u69JBZl5D/L4yjh4/USZWjTNt8s4GeoqvrJ6o94OPj3s61y3WoKCzp8t+mdZewGA1+592ARw82XMc/1u48eXu49vGDRleMyhb/K6ste9Wvq11v/P3Q4usxafu1/L2bvVmLP1vjk7qGfJmZV1QC+lYdQFpRz4vtrh4/bGW3/vkH0v90l862jy39i3tkAgK1KUgv6vh3uoEDNPhzXyMe21/f+rLIHzkmZdQt5Nuq3vbMrzDcXYCxvgqlaTuwdcMOFBi481HnyZdPzBqvweA8A/6a2/O6sJ5eP7KM24/oxnH/IUvkmwNOSnDChBID/pTJ+GiJSRkREREREZEdtX/3RSIiIiIiIropmJQRERERERHZEZMyIiIiIiIiO2JSRkREREREZEdMyoiIiIiIiOyISRkREREREZEdMSkjIiIiIiKyIyZlREREREREdsSkjIiIiIiIyI6YlBEREREREdkRkzIiIiIiIiI7YlJGRERERERkR0zKiIiIiIiI7IhJGRERERERkR0xKSMiIiIiIrIjJmVERERERER2xKSMiIiIiIjIjpiUERERERER2RGTMiIiIiIiIjtiUkZERERERGRHTMqIiIiIiIjsiEkZERERERGRHTEpIyIiIiIisiMmZURERERERHbEpIyIiIiIiMiOmJQRERERERHZEZMyIiIiIiIiO2JSRkREREREZEdMyoiIiIiIiOyISRkREREREZEddWtSJvqq8MZ0NWJFUXmla4iiHyb+6g2sSNAorxAREREREd2aeKaMiIiIiIjIjoS4uLh2T2OJagFzBquR7At4SNOZBQ34V0oDigUBoihg2WQN+mUY8FKeefboQY54VFOPn50wQuyrxlujHOAkvbcl8Wo9fnWgHmXyMlQCZkrLn9kXcG0ALuTV49/njbjaZp72yGfKJj36RwSe3Qhd3AJE92lA6dkt2PL+AZQYzfOLrhEYt2AZhg8IgBsqUXByC7ZtOYKrUt1N5e6DMG3VcgwJ8YWLoEN57mF8tWkT0iqUcsdQJC5ZhcTY/nCtL0Xu9//Fp5+fgFaZn4iIiIiIqCuo/Pz8nlaeNxFFEYlDHbHExYgPpURse4GIsEgVRjWIOFQhv0PAoDAVPMqM+K7SNAt8/FQYqzLisyIpSattwMlLIvZogbFeIt6VErFPshuw55KU1BkAIxwQE6vGPd4iNh5vwI4SEfEDNRhsEJuWZ5kbQsdOlpKxcpz+7AMcPFuDkEmLMcDwLU7l6qT6qxG74n8xxfMkdn3yXxw6VYrASSsQU/8NUvLrTEsImvkIZvY5ic3vvouDx9PhEDkTib75OHK+RJrfAWHzn8Bs35P4fNP7+C61Ev2TVyGu4RBO55nnt0QUozDzqWexbM5cTJja4tG/At+cyIFoQ+JJREREREQ/Du0mZYKUNFwqkpKxPBF5OqBCJ0LrpsJ0FxHbL8tnxiwnZYIooFIvzeco4LYAAXvONeCilIxV1gtKQiIgOU4FfaYeH10GyqtFFDs74HZ3I7YVmZdnmTkpczq5Dl+cuIyqknRc9ZyAcf5FOHi6QKq/ESWnd+DQ9+dwpawc1VdzUOObjATvHBw6e8W0BP/htyO8eie+PJSB6srLyDr2lSkhMwvCqHnJqPpqLb7J0KKqNAslbglIDirDgVOXlPdYokXRhaNIObIfx79r8TibieraeuU9REREREREFn5T1ttXhf+ZpMEbsxzx9mxHPBYiQKNSCruAm1pEjZS4NaqSnjtJSZzqOm4KUqerUp4BupoaaByd4aDM3ytmMVY9vha/fm4dnnx+HVYmeEGldjSVybKPHYZh6L14+NHHsWTpEiTGBULTtG4nODo5Im7N66Z55cc9yf5QaZyalm+JIBhQXVyA4qI2j6tShktERERERNRCu0mZ6OCAZcNVUBc04C8HDXh6vwHvXLI9WbI3UTUEU1YkQXV6A9a/8ke89fIfse1U6+si9Wmb8MYLr2Dn0XRoNWFIWP0UVk8OVEplOlzYbJ7X9HjpGbz+yVEYbfrNWxRmPGlO5lo97hhvU1JHREREREQ/Hu2fKXMSEKAx4nBmAzK1InK1RlS1yiWkaT3gKr1HJv8GrZcaqDZcm3B0lIJU1wtwbT5xBXfpeZ1eRMN1/N7KycVdeQa4uLrCoK81J02e/eDrkotz+06isKgAVwoLUWtsvn2+fKMSlbMbhPILOLN/K3ZsfAEbd19BvwExcDQlTXXQ1znBwXC56SxXuc4Bapvrlo2Db7VI6BofW4/ZlNQREREREdGPR/tJWa2IIilpmjBAhfBeAgaFaDDdVymTyL85O1ssIjxUgyRvAREBaswNAFKvmJO0JjqgXCNgRF8HBLkL6O/cmJAYcUaaPzZcgzG9BYT5OWBBPwGpjT/pspHP0NswIiIYATFzMGm4FwqyL5oLygtQUhuKIdNHI9A/GBGJq5EQ2TI9dMbQ1S/igTtnIzIoAH0CYhEb5g1dRQkMpvJ8ZKRXIHziSgwK64++ERMw9/4nMSPezVRqDS9fJCIiIiIiW7V/ow+IyNYKGBquwtxwB0SpRBwsk5Iz6a/p7oqS8qsitL0cMC9ahWRfATkX67EhT4S+5ZmgOul9Tg6YNVCF2RFqjHeSb+QhzS+9p7hMeq+XCvMGOCBZStqKc+vxTqYRtTadSTLf6MPh/LdwT/oJJieEQp/6X2z7IhU1ogBBLEJBsQcGjJ+N8UmJ6K9JwancAIRrUvFNSqG0+npczi+TkrrpSJo6Cwmj4+GlPYztm3ehtE6aXxBxNSsDDaETMXH6HIwYHIi6M+9j65dp0kfimS4iIiIiIuo6Hf6fMiIiIiIiIup+Hd59kYiIiIiIiLofkzIiIiIiIiI7YlJGRERERERkR0zKiIiIiIiI7IhJGRERERERkR21Ssrc3Zv/GTMRERERERF1P54pIyIiIiIisiMmZURERERERHbEpIyIiIiIiMiOmJQRERERERHZEZMyIiIiIiIiO1L5+fk9rTyHo6Mj9Hq9MvXjJYp+mPToSxhr3IEzl4zKqzeX6BqF8cvvx8IlyzApaQxCPSuRn16AWlFQ3kFERERERD8EPFPWA4miIwbOvw/jvTOx618vYP2H30AcejfmTeirvIOIiIiIiH4oeKasXW4IHTsZvbRXETnvEcybOw0x/jXIPZuDGuVMlegagXFL78e8xUuRnDwe4b21yLtwCbVQyt0HYdqdD2PBomWYMnUq4gf0Rnl6CkrrlHLHUCQufwCLl6/E5IljEOJehuz0QuhN84cjYeFoFG95Ed9crEBVSQbyNUMxNaoW3x7NglHg2TIiIiIioh8KnimzIHBgEPK2voT1/9mDuuhVmD22j+l1UVQjdtHDGOuVjr0bXsQ767+CLmYNZid6msplQZNXYqTjKWx97fd4fd2/cc44AtOTY01louiAsLn3I8krFTveeBb/3rgb+vh7MG+Ml6lcTgqdnGtQW9N86WR1dQ0EJxc4K9NERERERPTDwKTMgtJT23HsYi4KUz/H3uMVCAyLML0uCPVI3fALrP37RziTkY3LF/fh6HkdAoJDTOUyVzc31BVfQNalQpTknsLuNx7Da1tSldL+iIxyQ/rej3EhNx9Fabux73gJgiOjlfJGnhhx11rcN8u8XiIiIiIi+uFhUmZBna5KeQboamqgcXSGgyiapnvFLMaqx9fi18+tw5PPr8PKBC+o1I6mMln2scMwDL0XDz/6OJYsXYLEuEBolHkBJzg6OSJuzeumeeXHPckBUGmcmpZvVoET7/0B63dmKNNERERERPRDw6TsBoiqIZiyIgmq0xuw/pU/4q2X/4htpyqVUjN92ia88cIr2Hk0HVpNGBJWP4XVkwOVUpkOFzab5zU9XnoGr39y9Jrfixl1laip52/IiIiIiIh+qJiUWeDk4q48A1xcXWHQ15qTJs9+8HXJxbl9J1FYVIArhYWoNWqUd8q/GROgcnaDUH4BZ/ZvxY6NL2Dj7ivoNyAGjqYzYXXQ1znBwXAZxdL88qNc5wB1U0JWjbpaVzi7Nm8eNzdXwFAnzUlERERERD8kTMos8Bl6G0ZEBCMgZg4mDfdCQfZFc0F5AUpqQzFk+mgE+gcjInE1EiJbXnbojKGrX8QDd85GZFAA+gTEIjbMG7qKEhhM5fnISK9A+MSVGBTWH30jJmDu/U9iRrybqRTIwcUMIwbNWo64MHn9MzFrTBAK0s9BzzsvEhERERH9oPCW+O0y3xLf4fwhuCf9BJMTQqFP/S+2fZFquiW+IBahoNgDA8bPxvikRPTXpOBUbgDCNan4JqXQdCOQy/llUlI3HUlTZyFhdDy8tIexffMu0y3xBUHE1awMNIROxMTpczBicCDqzryPrV+moQ5yeQNKLmZBCB+PCdL8owb5o/q0VL7jPP95NBERERHRD4wQFxfXdIrH3d0dVVXNN7cgIiIiIiKi7sXLF4mIiIiIiOyISRkREREREZEdMSkjIiIiIiKyIyZlREREREREdsSkjIiIiIiIyI6YlBEREREREdkRkzIiIiIiIiI7YlJGRERERERkR0zKiIiIiIiI7IhJGRERERERkR0xKbsFqPoMxaRVj2NqjKi80vP5TrwXK+ZPRIDLrVNnIiIiIiJ7YFLWCaI6EcuffxO/e2w++oiWk4/QRX/Fr1cOVaauFbrohXbLHcPm4c6HVyGo8jDO5ZlfE0U/TPzVm1iRoDG/YAeiqIL3sDvx8z9Ln/+ZNQht8/mvnvsOlzymYPUv70Wcp6C8SkREREREbTEp64zwAeh3tRDFvpEIc1Ne60KiJgbTV01B7c6/4j+f7kNBVc9IbkTRGSHTH8Ndi0ORezwVdcrrLdUXn8K+d/+CLVkRmLt8InpZSVqJiIiIiH6sVH5+fk8rz+Ho6Ai9Xq9MkTX+oxYivuZrnBTGIbDiK6Rebk48xF6DMePuR7Bo4TwMixBQZQhFiEMKvkkpsqlc5jRsGeZHpGHLpu+gRcuEzA2hYyejl/YqIuc9gnlzpyHGvwa5Z3NQI5rfJ7pGYNzS+zFv8VIkJ49HeG8t8i5cQq2yHNF9EKbd+TAWLFqGKVOnIn5Ab5Snp6C0Til3DEXi8gewePlKTJ44BiHuZchOL4TeNL8fhkzoh9SNr2F/RQTGxgPn9pxCudCyjoAgGFCSA0TNmwCnU3uRW9O6nIiIiIiIeKbshomiO8IifJGX9R2yMysRFBGulMhlagy87S6McEnF52+uxSffuSIsykkptV7eqG+//kDeRRQoiVZbgQODkLf1Jaz/zx7URa/C7LF9TK/Ly49d9DDGeqVj74YX8c76r6CLWYPZiZ6mclnQ5JUY6XgKW1/7PV5f92+cM47A9ORYU5koOiBs7v1I8krFjjeexb837oY+/h7MG+NlKgcKcXD9P3Hqsg0JfGUa8ssC4d+foUZERERE1B5+U75R6lgE98tF7oU6XLqYCefQgejddIleAIKCXJF18D2czc7FpVMf43h2y6Zur/zaxMvJ2Rn62mpl6lqlp7bj2MVcFKZ+jr3HKxAYFmF6XRDqkbrhF1j7949wJiMbly/uw9HzOgQEh5jKZa5ubqgrvoCsS4UoyT2F3W88hte2pCql/REZ5Yb0vR/jQm4+itJ2Y9/xUgRHRptKBUGUEjdbz3rVoK5WgJOLizJNREREREQtMSm7UWED0L8iA1mVQMPFNBT4RyG8Ke9whqOTAbXVBtOUnMTodLWm52bWyhVtLgdsq05XpTwDdDU10Dg6w0FJDHvFLMaqx9fi18+tw5PPr8PKBC+o1I6mMln2scMwDL0XDz/6OJYsXYLEuEBompJKJ6l+johb87ppXvlxT7I/VBqnpuVfL8HKZyEiIiIi+rFiUnaD/CKi4OY9BXc893c88b/LECyEIShSpZR2DdEoJUDC9W8iUTUEU1YkQXV6A9a/8ke89fIfse2UlD22oE/bhDdeeAU7j6ZDqwlDwuqnsHpyoFIq0+HCZvO8psdLz+D1T47CeN3JlWD6CKJoVKaJiIiIiKglJmVWqNz6wM2xdSIiim4IC/dH7s6/4O2Xn5Uef8Jnp/QtfldWB32dBs5u5lvWy5f6ubg4m56bWSs3q67WwtnDG+oOzk45ubgrzwAXV1cY9LXmpMmzH3xdcnFu30kUFhXgSmEhao3Nt8+X16dydoNQfgFn9m/Fjo0vYOPuK+g3IAaOpnXJ9XOCg+EyiqX55Ue5zgHqGzrb5Y1eHgZUVbZzJpCIiIiIiJiUWSK6J2HFk8/hkV8tQkDLxEgdg+CgEuSdy0LJlULT43xGDjxCo+Fpel8B8vJqEDZ+BeJCg9FvyGKMDDPPatZe+bUJz5WMDOjChiK2g9vt+wy9DSMighEQMweThnuhIPuiuaC8ACW1oRgyfTQC/YMRkbgaCZEtEztnDF39Ih64czYigwLQJyAWsWHe0FWUwHxBZT4y0isQPnElBoX1R9+ICZh7/5OYEW+uiPw/ytx8AuHrHwg/b1cpiFzhGSAlgv59lKSumSpiBCJdMpCdyTNlRERERETt4S3xLVH5IGJ0PDwrU3D8SAZqGs8UhU3CzGHVOPbpcZQqt5ivN/ghbkYUqg9+i8sNIkqyC+AaOxlJk5MR5ZGG1MJ+CBbMt7wXBKPF8kbGkksQoxdgUqwBGWcyUWNsTNzMt8R3OH8I7kk/weSEUOhT/4ttX6SabokviEUoKPbAgPGzMT4pEf01KTiVG4BwTaq0/EJp/fW4nF8mJXXTkTR1FhKkz+ilPYztm3eZbokv/8btalYGGkInYuL0ORgxOBB1Z97H1i/TUGf6vAFIevD3WDh9MkbFBkLtGIiBY5MxckxflO4+jMvKTUAcPIZi9prb4XZsPb44UwaRvysjIiIiIrqGEBcX13Rqw93dHVVVzTePIPuT/1/YhDsfxDi/Uhxa/2ccyLk1EhuPkfdgzbx41B1/G+9tOYkqJVEjIiIiIqLWmJTdAkRRA6+oBPStOoC0olsjuXGPTECgNgXpRdU8Q0ZEREREZAGTMiIiIiIiIjvijT6IiIiIiIjsiEkZERERERGRHTEpIyIiIiIisiMmZURERERERHbEpIyIiIiIiMiOmJQRERERERHZEZMyIiIiIiIiO2JSRkREREREZEdMysgqVZ+hmLTqcUyNafo/43bnO/FerJg/EQEuPadOREREREQ3QoiLi2v6Vuvu7o6qqipliiyJW7MOi+LVypRZ/vbf4F+7S5Qp60TRDZG3PYi5Y8Lg6aSCqD+CD3/zJrDqVSwb7qK85xw++83fcLJeME1fDzHmDjyx3IgP/vddZAvXP7/MMWwe1twxHnVHP8PXe/ahoMq8HFF0gMuA5YiZPApuhsM4/fZ7qLyOdYjO4QhKmo/A4L5QN5SjIv1zXDx0CrXG5mWIoiu8xt2NAYNC4ewot89xnHvjXZRJ61H7DsHYWYuQ2D8fn//9LZytYHJGRERERLcmlZ+f39PKczg6OkKv1ytTZEn5xSM4+e1+1PSfBM/zf8c//7MVZzJLoa+/juTAYyLm/WQgLm16CR9v/wpHpKSkSFeHq9lHpWXvwZFUIHJEL+R9/S2KWiQrNvMdivGDRJzdcwrlN5CUiZoYzL5/KdS7n8fGnWehNTQmZM7wGH0fBo/xQXlaAVx616L4xBnU2bgOUXREn+RfINzrPC7u2oxL+XXwHL4IPsYTuHK5RnmXxG0sBsyKQuXOf+C81B4FKWdQXVcHUVqPseYysk8eQUnQAswbYcDpo1nQ38BnJCIiIiKyNyZlN8ior4Gupha+w+agX9lXOHC6oCkhE0U/THr0JYzz1GLA/F/g9jlTEeNfg5yzudCJLRIHrziMGeeMc+/vQFZ1DWqlhMwoJxzSsmt11dCpwjBinDfy20nKRNcIjFt6P+YtXork5PEI761F3oVLqIUAMe5uPPE/92PK8GCoHUMwZMbtmDj9diRF1+PE4XRT8iI6hiJx+QNYvHwlJk8cgxD3MmSnF0Ivzd/IadgyzI9Iw5ZN30Hb4nXAB37xgSjd+U/kVoWhfwSuKykDQtBv4nDUHPgH8gsqoS/PglY1GOH9a5F/IdeUdJm4D0S/wc4o2bUbFbU61Eux2VQmEQQDSnKAqNsnwOn0XuTWtF6/qHHAQ5M1uDsQOJljvK4zeURERERENwt/U9aNAqP7IXvzS1i/8SAMMaswM8HT9LoYtgwPPb8OTz06R0pvBmLOn17Hk9L0k8/chSjR+pk2UVQjdtHDGOuVjr0bXsQ767+CLmYNZieal4/0T/CvF5/Guk9OoK76GLau/T3WSY/XNx5AtWl+B4TNvR9JXqnY8caz+PfG3dDH34N5Y7zM8yv69usP5F1EQctE0uQyLn25AVfKDMr09XKFylEHg86oTAMGKemCkwtU0nMxYD5G3vdXjF8+DW6IQtRP12KcND3u7lXo3bZ9KtOQXxYA//7thLJagJcT4OgMmC8GJSIiIiLqeZiUdaPS01/g2MVcFJ7bikNnDfAPCjYX5H2BTS//EW+9ux/lyMT+v0vP5el/bEaO+R0WCUI9Ujf8Amv//hHOZGTj8sV9OHpeh4DgEHO5/iqKiwpw5ap8KWANKgovmaaLy6pMZ+KA/oiMckP63o9xITcfRWm7se94KYIjo03zN3Jydoa+Vk7jWhMEUUrsuuKskwf6znkGwxLDlGnFla9x9sMXcfyLb1GLbOR8LD2XpzdvQ6XylmY1qKsTpHzu2rRL0DXghZ0GPL63Huk8S0ZEREREPRSTsm5UW6NVnkFKHGqh1jiZngv1lSiVk6YSLeqhh7Yxabp81ebfRfWKWYxVj6/Fr59bZzrLtjLBCyq1o1JqjRMcnRwRt0Y5Qyc97kn2h0qqn0PLM1HdnshU4srOtUj5PlOZNhMatNCVFaGmogoNMEBfVmia1pVVoKGDOgkdvK7Xiyi5gZukEBERERHdLEzKbkGiagimrEiC6vQGrH/FfJZt26lrzyFZpsOFzcoZOvnx0jN4/ZOjypk0M9EoJWhC94aIqJcS04bOJE2CqYqi2HwpJBERERHRrYRJmRUqtz5wc7TTmZaOfl7m2Q++Lrk4t+8kCuUzboWFqDVqlMIWRLGDRdRBX+cEB8Nl8xk66VGuc4C6zdmm6motnD28obbhd24dEVyk+dVt268GDXoXaFyaw0/j7AIY6tCgTNvOG7161aOqslaZJiIiIiK6tTAps0B0T8KKJ5/DI79ahIA2iYnG3RfePr5wlXIhB5fe6N3HD72cu7g5K8pQaQxC5IgQeEvL793HG84OUj3KC1BSG4oh00cj0D8YEYmrkRDZTuJUXo4ql3BEx4XB1z8Qvp7OSkE+MtIrED5xJQaF9UffiAmYe/+TmBHvppSbXcnIgC5sKGJbvyzleipoPPzh4u0P117OEOAMpz4B0rR3q8sfRdcxiF3zOyQsvw1urdovH1fzRfgmLoCPf3+4h0xB+KBAVOZfaHWmzhaqiBGIdM1Adua1Z8rk373NHK3BsyNV8O5EYklERERE1J2YlFnSUI2qWj3qqrRoe5/BAQv/gId+8wySwwR4j3lQev4sloz1Vkq7SN132PN5Jvxm/wY/f+JPePCJR5DoBwjGk/j6g4MwxK3Cmod/iRmDipF69tobcqBwD77+tg6x/+83uP+xZ3DX3DjTy4JgRNb2ddhbHIpp9zyFO9bMgPv5f2Pzvium8kYNF7bjm/xITF0xFb6alkmNLwLn/hojVz6BkZOHQu06FAOl5yNWLIaPfPvERvXV0Evt11BThZYpkyDoUXrw38irDEX43IcRP3UMHLLeQ9qJy8o7bOPgMRSzF49B3cHPkNLOx4dGQLyvlORVGnH1OpM9IiIiIqKbRYiLi2v6tu3u7o6qqipligim/2c24c4HMc6vFIfW/xkHcnpGcuMx8h6smRePuuNv470tJ1HVzt0gRSlD/EeiA77crcenbf6HGRERERFRT8GkjKwSRQ28ohLQt+oA0op6RnLjHpmAQG0K0ouqW/1D6ZYCB2jw575GPLa/HiU8U0ZEREREPRQvXySrBMGAioyDPSYhk1VlHEba5ZoOEzJRFBHlJSDjkpEJGRERERH1aDxTRkREREREZEc8U0ZERERERGRHTMqIiIiIiIjsqFVSxksXiYiIiIiIbi6eKSMiIiIiIrIjJmVERERERER2xKSMiIiIiIjIjpiUERERERER2RGTMiIiIiIiIjtiUkZERERERGRHTMqIiIiIiIjsiEkZERERERGRHTEpIyIiIiIisiMmZURERERERHbEpIyIiIiIiMiOmJQRERERERHZEZMyIiIiIiIiO2JSRkREREREZEdMyoiIiIiIiOyISRkREREREZEdMSkjIiIiIiKyIyZlREREREREdgP8f+t0YyzFt4+LAAAAAElFTkSuQmCC;" vertex="1" parent="1">
          <mxGeometry x="-789" y="30" width="869" height="185" as="geometry" />
        </mxCell>
        <mxCell id="NvqPJ8NiP_3j-MuA9Z-s-2" value="1" style="ellipse;whiteSpace=wrap;html=1;aspect=fixed;strokeWidth=2;fontFamily=Tahoma;spacingBottom=4;spacingRight=2;strokeColor=#82b366;fillColor=#d5e8d4;" vertex="1" parent="1">
          <mxGeometry x="20" y="40" width="40" height="40" as="geometry" />
        </mxCell>
        <mxCell id="NvqPJ8NiP_3j-MuA9Z-s-3" value="2" style="ellipse;whiteSpace=wrap;html=1;aspect=fixed;strokeWidth=2;fontFamily=Tahoma;spacingBottom=4;spacingRight=2;strokeColor=#82b366;fillColor=#d5e8d4;" vertex="1" parent="1">
          <mxGeometry x="-750" y="150" width="20" height="20" as="geometry" />
        </mxCell>
        <mxCell id="NvqPJ8NiP_3j-MuA9Z-s-4" value="3" style="ellipse;whiteSpace=wrap;html=1;aspect=fixed;strokeWidth=2;fontFamily=Tahoma;spacingBottom=4;spacingRight=2;strokeColor=#82b366;fillColor=#d5e8d4;" vertex="1" parent="1">
          <mxGeometry x="-750" y="180" width="20" height="20" as="geometry" />
        </mxCell>
        <mxCell id="NvqPJ8NiP_3j-MuA9Z-s-9" value="" style="ellipse;whiteSpace=wrap;html=1;align=center;aspect=fixed;fillColor=none;strokeColor=none;resizable=0;perimeter=centerPerimeter;rotatable=0;allowArrows=0;points=[];outlineConnect=1;" vertex="1" parent="1">
          <mxGeometry x="-390" y="370" width="10" height="10" as="geometry" />
        </mxCell>
        <mxCell id="NvqPJ8NiP_3j-MuA9Z-s-14" value="SdfSegment" style="html=1;whiteSpace=wrap;" vertex="1" parent="1">
          <mxGeometry x="-600" y="330" width="110" height="50" as="geometry" />
        </mxCell>
        <mxCell id="NvqPJ8NiP_3j-MuA9Z-s-15" value="Transform&lt;br&gt;(&lt;i&gt;translate)&lt;/i&gt;" style="html=1;whiteSpace=wrap;" vertex="1" parent="1">
          <mxGeometry x="-600" y="460" width="110" height="50" as="geometry" />
        </mxCell>
        <mxCell id="NvqPJ8NiP_3j-MuA9Z-s-16" value="" style="rounded=0;orthogonalLoop=1;jettySize=auto;html=1;endArrow=halfCircle;endFill=0;endSize=6;strokeWidth=1;sketch=0;exitX=0.5;exitY=0;exitDx=0;exitDy=0;" edge="1" parent="1" source="NvqPJ8NiP_3j-MuA9Z-s-15" target="NvqPJ8NiP_3j-MuA9Z-s-18">
          <mxGeometry relative="1" as="geometry">
            <mxPoint x="-170" y="385" as="sourcePoint" />
          </mxGeometry>
        </mxCell>
        <mxCell id="NvqPJ8NiP_3j-MuA9Z-s-17" value="" style="rounded=0;orthogonalLoop=1;jettySize=auto;html=1;endArrow=oval;endFill=0;sketch=0;sourcePerimeterSpacing=0;targetPerimeterSpacing=0;endSize=10;exitX=0.5;exitY=1;exitDx=0;exitDy=0;" edge="1" parent="1" source="NvqPJ8NiP_3j-MuA9Z-s-14" target="NvqPJ8NiP_3j-MuA9Z-s-18">
          <mxGeometry relative="1" as="geometry">
            <mxPoint x="-210" y="385" as="sourcePoint" />
          </mxGeometry>
        </mxCell>
        <mxCell id="NvqPJ8NiP_3j-MuA9Z-s-18" value="" style="ellipse;whiteSpace=wrap;html=1;align=center;aspect=fixed;fillColor=none;strokeColor=none;resizable=0;perimeter=centerPerimeter;rotatable=0;allowArrows=0;points=[];outlineConnect=1;" vertex="1" parent="1">
          <mxGeometry x="-550" y="410" width="10" height="10" as="geometry" />
        </mxCell>
        <mxCell id="NvqPJ8NiP_3j-MuA9Z-s-20" value="base1" style="text;html=1;align=center;verticalAlign=middle;resizable=0;points=[];autosize=1;strokeColor=none;fillColor=none;" vertex="1" parent="1">
          <mxGeometry x="-600" y="300" width="60" height="30" as="geometry" />
        </mxCell>
        <mxCell id="NvqPJ8NiP_3j-MuA9Z-s-22" value="SdfSegment" style="html=1;whiteSpace=wrap;" vertex="1" parent="1">
          <mxGeometry x="-350" y="330" width="110" height="50" as="geometry" />
        </mxCell>
        <mxCell id="NvqPJ8NiP_3j-MuA9Z-s-23" value="Transform&lt;br&gt;(&lt;i&gt;translate)&lt;/i&gt;" style="html=1;whiteSpace=wrap;" vertex="1" parent="1">
          <mxGeometry x="-350" y="430" width="110" height="50" as="geometry" />
        </mxCell>
        <mxCell id="NvqPJ8NiP_3j-MuA9Z-s-24" value="" style="rounded=0;orthogonalLoop=1;jettySize=auto;html=1;endArrow=halfCircle;endFill=0;endSize=6;strokeWidth=1;sketch=0;exitX=0.5;exitY=0;exitDx=0;exitDy=0;" edge="1" parent="1" source="NvqPJ8NiP_3j-MuA9Z-s-23" target="NvqPJ8NiP_3j-MuA9Z-s-26">
          <mxGeometry relative="1" as="geometry">
            <mxPoint x="80" y="385" as="sourcePoint" />
          </mxGeometry>
        </mxCell>
        <mxCell id="NvqPJ8NiP_3j-MuA9Z-s-25" value="" style="rounded=0;orthogonalLoop=1;jettySize=auto;html=1;endArrow=oval;endFill=0;sketch=0;sourcePerimeterSpacing=0;targetPerimeterSpacing=0;endSize=10;exitX=0.5;exitY=1;exitDx=0;exitDy=0;" edge="1" parent="1" source="NvqPJ8NiP_3j-MuA9Z-s-22" target="NvqPJ8NiP_3j-MuA9Z-s-26">
          <mxGeometry relative="1" as="geometry">
            <mxPoint x="40" y="385" as="sourcePoint" />
          </mxGeometry>
        </mxCell>
        <mxCell id="NvqPJ8NiP_3j-MuA9Z-s-26" value="" style="ellipse;whiteSpace=wrap;html=1;align=center;aspect=fixed;fillColor=none;strokeColor=none;resizable=0;perimeter=centerPerimeter;rotatable=0;allowArrows=0;points=[];outlineConnect=1;" vertex="1" parent="1">
          <mxGeometry x="-300" y="410" width="10" height="10" as="geometry" />
        </mxCell>
        <mxCell id="NvqPJ8NiP_3j-MuA9Z-s-27" value="SdfSegment" style="html=1;whiteSpace=wrap;" vertex="1" parent="1">
          <mxGeometry x="-170" y="330" width="110" height="50" as="geometry" />
        </mxCell>
        <mxCell id="NvqPJ8NiP_3j-MuA9Z-s-28" value="Transform&lt;br&gt;(&lt;i&gt;translate)&lt;/i&gt;" style="html=1;whiteSpace=wrap;" vertex="1" parent="1">
          <mxGeometry x="-170" y="430" width="110" height="50" as="geometry" />
        </mxCell>
        <mxCell id="NvqPJ8NiP_3j-MuA9Z-s-29" value="" style="rounded=0;orthogonalLoop=1;jettySize=auto;html=1;endArrow=halfCircle;endFill=0;endSize=6;strokeWidth=1;sketch=0;exitX=0.5;exitY=0;exitDx=0;exitDy=0;" edge="1" parent="1" source="NvqPJ8NiP_3j-MuA9Z-s-28" target="NvqPJ8NiP_3j-MuA9Z-s-31">
          <mxGeometry relative="1" as="geometry">
            <mxPoint x="260" y="385" as="sourcePoint" />
          </mxGeometry>
        </mxCell>
        <mxCell id="NvqPJ8NiP_3j-MuA9Z-s-30" value="" style="rounded=0;orthogonalLoop=1;jettySize=auto;html=1;endArrow=oval;endFill=0;sketch=0;sourcePerimeterSpacing=0;targetPerimeterSpacing=0;endSize=10;exitX=0.5;exitY=1;exitDx=0;exitDy=0;" edge="1" parent="1" source="NvqPJ8NiP_3j-MuA9Z-s-27" target="NvqPJ8NiP_3j-MuA9Z-s-31">
          <mxGeometry relative="1" as="geometry">
            <mxPoint x="220" y="385" as="sourcePoint" />
          </mxGeometry>
        </mxCell>
        <mxCell id="NvqPJ8NiP_3j-MuA9Z-s-31" value="" style="ellipse;whiteSpace=wrap;html=1;align=center;aspect=fixed;fillColor=none;strokeColor=none;resizable=0;perimeter=centerPerimeter;rotatable=0;allowArrows=0;points=[];outlineConnect=1;" vertex="1" parent="1">
          <mxGeometry x="-120" y="410" width="10" height="10" as="geometry" />
        </mxCell>
        <mxCell id="NvqPJ8NiP_3j-MuA9Z-s-32" value="base0" style="text;html=1;align=center;verticalAlign=middle;resizable=0;points=[];autosize=1;strokeColor=none;fillColor=none;" vertex="1" parent="1">
          <mxGeometry x="-360" y="300" width="60" height="30" as="geometry" />
        </mxCell>
        <mxCell id="NvqPJ8NiP_3j-MuA9Z-s-33" value="base1" style="text;html=1;align=center;verticalAlign=middle;resizable=0;points=[];autosize=1;strokeColor=none;fillColor=none;" vertex="1" parent="1">
          <mxGeometry x="-170" y="300" width="60" height="30" as="geometry" />
        </mxCell>
        <mxCell id="NvqPJ8NiP_3j-MuA9Z-s-34" value="Add" style="html=1;whiteSpace=wrap;" vertex="1" parent="1">
          <mxGeometry x="-270" y="530" width="120" height="50" as="geometry" />
        </mxCell>
        <mxCell id="NvqPJ8NiP_3j-MuA9Z-s-35" value="" style="rounded=0;orthogonalLoop=1;jettySize=auto;html=1;endArrow=halfCircle;endFill=0;endSize=6;strokeWidth=1;sketch=0;" edge="1" parent="1">
          <mxGeometry relative="1" as="geometry">
            <mxPoint x="-240" y="530" as="sourcePoint" />
            <mxPoint x="-240" y="510" as="targetPoint" />
          </mxGeometry>
        </mxCell>
        <mxCell id="NvqPJ8NiP_3j-MuA9Z-s-36" value="" style="rounded=0;orthogonalLoop=1;jettySize=auto;html=1;endArrow=oval;endFill=0;sketch=0;sourcePerimeterSpacing=0;targetPerimeterSpacing=0;endSize=10;exitX=0.5;exitY=1;exitDx=0;exitDy=0;" edge="1" parent="1" source="NvqPJ8NiP_3j-MuA9Z-s-23">
          <mxGeometry relative="1" as="geometry">
            <mxPoint x="-300" y="490" as="sourcePoint" />
            <mxPoint x="-240" y="510" as="targetPoint" />
            <Array as="points">
              <mxPoint x="-295" y="490" />
              <mxPoint x="-240" y="490" />
            </Array>
          </mxGeometry>
        </mxCell>
        <mxCell id="NvqPJ8NiP_3j-MuA9Z-s-37" value="" style="ellipse;whiteSpace=wrap;html=1;align=center;aspect=fixed;fillColor=none;strokeColor=none;resizable=0;perimeter=centerPerimeter;rotatable=0;allowArrows=0;points=[];outlineConnect=1;" vertex="1" parent="1">
          <mxGeometry x="-240" y="500" width="10" height="10" as="geometry" />
        </mxCell>
        <mxCell id="NvqPJ8NiP_3j-MuA9Z-s-39" value="" style="rounded=0;orthogonalLoop=1;jettySize=auto;html=1;endArrow=halfCircle;endFill=0;endSize=6;strokeWidth=1;sketch=0;" edge="1" parent="1">
          <mxGeometry relative="1" as="geometry">
            <mxPoint x="-180" y="530" as="sourcePoint" />
            <mxPoint x="-180" y="510" as="targetPoint" />
          </mxGeometry>
        </mxCell>
        <mxCell id="NvqPJ8NiP_3j-MuA9Z-s-40" value="" style="rounded=0;orthogonalLoop=1;jettySize=auto;html=1;endArrow=oval;endFill=0;sketch=0;sourcePerimeterSpacing=0;targetPerimeterSpacing=0;endSize=10;exitX=0.5;exitY=1;exitDx=0;exitDy=0;" edge="1" parent="1" source="NvqPJ8NiP_3j-MuA9Z-s-28">
          <mxGeometry relative="1" as="geometry">
            <mxPoint x="-130" y="500" as="sourcePoint" />
            <mxPoint x="-180" y="510" as="targetPoint" />
            <Array as="points">
              <mxPoint x="-115" y="490" />
              <mxPoint x="-180" y="490" />
            </Array>
          </mxGeometry>
        </mxCell>
        <mxCell id="NvqPJ8NiP_3j-MuA9Z-s-41" value="" style="ellipse;whiteSpace=wrap;html=1;align=center;aspect=fixed;fillColor=none;strokeColor=none;resizable=0;perimeter=centerPerimeter;rotatable=0;allowArrows=0;points=[];outlineConnect=1;" vertex="1" parent="1">
          <mxGeometry x="-180" y="500" width="10" height="10" as="geometry" />
        </mxCell>
        <mxCell id="NvqPJ8NiP_3j-MuA9Z-s-44" value="SdfSegment" style="html=1;whiteSpace=wrap;" vertex="1" parent="1">
          <mxGeometry x="80" y="330" width="110" height="50" as="geometry" />
        </mxCell>
        <mxCell id="NvqPJ8NiP_3j-MuA9Z-s-45" value="Transform&lt;br&gt;(&lt;i&gt;translate)&lt;/i&gt;" style="html=1;whiteSpace=wrap;" vertex="1" parent="1">
          <mxGeometry x="80" y="430" width="110" height="50" as="geometry" />
        </mxCell>
        <mxCell id="NvqPJ8NiP_3j-MuA9Z-s-46" value="" style="rounded=0;orthogonalLoop=1;jettySize=auto;html=1;endArrow=halfCircle;endFill=0;endSize=6;strokeWidth=1;sketch=0;exitX=0.5;exitY=0;exitDx=0;exitDy=0;" edge="1" parent="1" source="NvqPJ8NiP_3j-MuA9Z-s-45" target="NvqPJ8NiP_3j-MuA9Z-s-48">
          <mxGeometry relative="1" as="geometry">
            <mxPoint x="510" y="385" as="sourcePoint" />
          </mxGeometry>
        </mxCell>
        <mxCell id="NvqPJ8NiP_3j-MuA9Z-s-47" value="" style="rounded=0;orthogonalLoop=1;jettySize=auto;html=1;endArrow=oval;endFill=0;sketch=0;sourcePerimeterSpacing=0;targetPerimeterSpacing=0;endSize=10;exitX=0.5;exitY=1;exitDx=0;exitDy=0;" edge="1" parent="1" source="NvqPJ8NiP_3j-MuA9Z-s-44" target="NvqPJ8NiP_3j-MuA9Z-s-48">
          <mxGeometry relative="1" as="geometry">
            <mxPoint x="470" y="385" as="sourcePoint" />
          </mxGeometry>
        </mxCell>
        <mxCell id="NvqPJ8NiP_3j-MuA9Z-s-48" value="" style="ellipse;whiteSpace=wrap;html=1;align=center;aspect=fixed;fillColor=none;strokeColor=none;resizable=0;perimeter=centerPerimeter;rotatable=0;allowArrows=0;points=[];outlineConnect=1;" vertex="1" parent="1">
          <mxGeometry x="130" y="410" width="10" height="10" as="geometry" />
        </mxCell>
        <mxCell id="NvqPJ8NiP_3j-MuA9Z-s-49" value="SdfSegment" style="html=1;whiteSpace=wrap;" vertex="1" parent="1">
          <mxGeometry x="260" y="330" width="110" height="50" as="geometry" />
        </mxCell>
        <mxCell id="NvqPJ8NiP_3j-MuA9Z-s-50" value="Transform&lt;br&gt;(&lt;i&gt;translate)&lt;/i&gt;" style="html=1;whiteSpace=wrap;" vertex="1" parent="1">
          <mxGeometry x="260" y="430" width="110" height="50" as="geometry" />
        </mxCell>
        <mxCell id="NvqPJ8NiP_3j-MuA9Z-s-51" value="" style="rounded=0;orthogonalLoop=1;jettySize=auto;html=1;endArrow=halfCircle;endFill=0;endSize=6;strokeWidth=1;sketch=0;exitX=0.5;exitY=0;exitDx=0;exitDy=0;" edge="1" parent="1" source="NvqPJ8NiP_3j-MuA9Z-s-50" target="NvqPJ8NiP_3j-MuA9Z-s-53">
          <mxGeometry relative="1" as="geometry">
            <mxPoint x="690" y="385" as="sourcePoint" />
          </mxGeometry>
        </mxCell>
        <mxCell id="NvqPJ8NiP_3j-MuA9Z-s-52" value="" style="rounded=0;orthogonalLoop=1;jettySize=auto;html=1;endArrow=oval;endFill=0;sketch=0;sourcePerimeterSpacing=0;targetPerimeterSpacing=0;endSize=10;exitX=0.5;exitY=1;exitDx=0;exitDy=0;" edge="1" parent="1" source="NvqPJ8NiP_3j-MuA9Z-s-49" target="NvqPJ8NiP_3j-MuA9Z-s-53">
          <mxGeometry relative="1" as="geometry">
            <mxPoint x="650" y="385" as="sourcePoint" />
          </mxGeometry>
        </mxCell>
        <mxCell id="NvqPJ8NiP_3j-MuA9Z-s-53" value="" style="ellipse;whiteSpace=wrap;html=1;align=center;aspect=fixed;fillColor=none;strokeColor=none;resizable=0;perimeter=centerPerimeter;rotatable=0;allowArrows=0;points=[];outlineConnect=1;" vertex="1" parent="1">
          <mxGeometry x="310" y="410" width="10" height="10" as="geometry" />
        </mxCell>
        <mxCell id="NvqPJ8NiP_3j-MuA9Z-s-54" value="base0" style="text;html=1;align=center;verticalAlign=middle;resizable=0;points=[];autosize=1;strokeColor=none;fillColor=none;" vertex="1" parent="1">
          <mxGeometry x="70" y="300" width="60" height="30" as="geometry" />
        </mxCell>
        <mxCell id="NvqPJ8NiP_3j-MuA9Z-s-55" value="base1" style="text;html=1;align=center;verticalAlign=middle;resizable=0;points=[];autosize=1;strokeColor=none;fillColor=none;" vertex="1" parent="1">
          <mxGeometry x="260" y="300" width="60" height="30" as="geometry" />
        </mxCell>
        <mxCell id="NvqPJ8NiP_3j-MuA9Z-s-56" value="Add" style="html=1;whiteSpace=wrap;" vertex="1" parent="1">
          <mxGeometry x="160" y="530" width="120" height="50" as="geometry" />
        </mxCell>
        <mxCell id="NvqPJ8NiP_3j-MuA9Z-s-57" value="" style="rounded=0;orthogonalLoop=1;jettySize=auto;html=1;endArrow=halfCircle;endFill=0;endSize=6;strokeWidth=1;sketch=0;" edge="1" parent="1">
          <mxGeometry relative="1" as="geometry">
            <mxPoint x="190" y="530" as="sourcePoint" />
            <mxPoint x="190" y="510" as="targetPoint" />
          </mxGeometry>
        </mxCell>
        <mxCell id="NvqPJ8NiP_3j-MuA9Z-s-58" value="" style="rounded=0;orthogonalLoop=1;jettySize=auto;html=1;endArrow=oval;endFill=0;sketch=0;sourcePerimeterSpacing=0;targetPerimeterSpacing=0;endSize=10;exitX=0.5;exitY=1;exitDx=0;exitDy=0;" edge="1" parent="1" source="NvqPJ8NiP_3j-MuA9Z-s-45">
          <mxGeometry relative="1" as="geometry">
            <mxPoint x="130" y="490" as="sourcePoint" />
            <mxPoint x="190" y="510" as="targetPoint" />
            <Array as="points">
              <mxPoint x="135" y="490" />
              <mxPoint x="190" y="490" />
            </Array>
          </mxGeometry>
        </mxCell>
        <mxCell id="NvqPJ8NiP_3j-MuA9Z-s-59" value="" style="ellipse;whiteSpace=wrap;html=1;align=center;aspect=fixed;fillColor=none;strokeColor=none;resizable=0;perimeter=centerPerimeter;rotatable=0;allowArrows=0;points=[];outlineConnect=1;" vertex="1" parent="1">
          <mxGeometry x="190" y="500" width="10" height="10" as="geometry" />
        </mxCell>
        <mxCell id="NvqPJ8NiP_3j-MuA9Z-s-60" value="" style="rounded=0;orthogonalLoop=1;jettySize=auto;html=1;endArrow=halfCircle;endFill=0;endSize=6;strokeWidth=1;sketch=0;" edge="1" parent="1">
          <mxGeometry relative="1" as="geometry">
            <mxPoint x="250" y="530" as="sourcePoint" />
            <mxPoint x="250" y="510" as="targetPoint" />
          </mxGeometry>
        </mxCell>
        <mxCell id="NvqPJ8NiP_3j-MuA9Z-s-61" value="" style="rounded=0;orthogonalLoop=1;jettySize=auto;html=1;endArrow=oval;endFill=0;sketch=0;sourcePerimeterSpacing=0;targetPerimeterSpacing=0;endSize=10;exitX=0.5;exitY=1;exitDx=0;exitDy=0;" edge="1" parent="1" source="NvqPJ8NiP_3j-MuA9Z-s-50">
          <mxGeometry relative="1" as="geometry">
            <mxPoint x="300" y="500" as="sourcePoint" />
            <mxPoint x="250" y="510" as="targetPoint" />
            <Array as="points">
              <mxPoint x="315" y="490" />
              <mxPoint x="250" y="490" />
            </Array>
          </mxGeometry>
        </mxCell>
        <mxCell id="NvqPJ8NiP_3j-MuA9Z-s-62" value="" style="ellipse;whiteSpace=wrap;html=1;align=center;aspect=fixed;fillColor=none;strokeColor=none;resizable=0;perimeter=centerPerimeter;rotatable=0;allowArrows=0;points=[];outlineConnect=1;" vertex="1" parent="1">
          <mxGeometry x="250" y="500" width="10" height="10" as="geometry" />
        </mxCell>
        <mxCell id="NvqPJ8NiP_3j-MuA9Z-s-63" value="Inflate" style="html=1;whiteSpace=wrap;" vertex="1" parent="1">
          <mxGeometry x="165" y="640" width="110" height="50" as="geometry" />
        </mxCell>
        <mxCell id="NvqPJ8NiP_3j-MuA9Z-s-64" value="" style="rounded=0;orthogonalLoop=1;jettySize=auto;html=1;endArrow=halfCircle;endFill=0;endSize=6;strokeWidth=1;sketch=0;exitX=0.5;exitY=0;exitDx=0;exitDy=0;" edge="1" parent="1" source="NvqPJ8NiP_3j-MuA9Z-s-63">
          <mxGeometry relative="1" as="geometry">
            <mxPoint x="595" y="565" as="sourcePoint" />
            <mxPoint x="220" y="610" as="targetPoint" />
          </mxGeometry>
        </mxCell>
        <mxCell id="NvqPJ8NiP_3j-MuA9Z-s-65" value="" style="ellipse;whiteSpace=wrap;html=1;align=center;aspect=fixed;fillColor=none;strokeColor=none;resizable=0;perimeter=centerPerimeter;rotatable=0;allowArrows=0;points=[];outlineConnect=1;" vertex="1" parent="1">
          <mxGeometry x="215" y="590" width="10" height="10" as="geometry" />
        </mxCell>
        <mxCell id="NvqPJ8NiP_3j-MuA9Z-s-66" value="" style="rounded=0;orthogonalLoop=1;jettySize=auto;html=1;endArrow=oval;endFill=0;sketch=0;sourcePerimeterSpacing=0;targetPerimeterSpacing=0;endSize=10;exitX=0.5;exitY=1;exitDx=0;exitDy=0;" edge="1" parent="1" source="NvqPJ8NiP_3j-MuA9Z-s-56">
          <mxGeometry relative="1" as="geometry">
            <mxPoint x="145" y="390" as="sourcePoint" />
            <mxPoint x="220" y="610" as="targetPoint" />
            <Array as="points" />
          </mxGeometry>
        </mxCell>
        <mxCell id="NvqPJ8NiP_3j-MuA9Z-s-67" value="" style="ellipse;whiteSpace=wrap;html=1;align=center;aspect=fixed;fillColor=none;strokeColor=none;resizable=0;perimeter=centerPerimeter;rotatable=0;allowArrows=0;points=[];outlineConnect=1;" vertex="1" parent="1">
          <mxGeometry x="140" y="420" width="10" height="10" as="geometry" />
        </mxCell>
        <mxCell id="NvqPJ8NiP_3j-MuA9Z-s-68" value="" style="swimlane;startSize=0;fillColor=#d5e8d4;strokeColor=#82b366;swimlaneFillColor=none;rounded=0;shadow=0;" vertex="1" parent="1">
          <mxGeometry x="-800" y="290" width="360" height="250" as="geometry" />
        </mxCell>
        <mxCell id="NvqPJ8NiP_3j-MuA9Z-s-5" value="1" style="ellipse;whiteSpace=wrap;html=1;aspect=fixed;strokeWidth=2;fontFamily=Tahoma;spacingBottom=4;spacingRight=2;strokeColor=#82b366;fillColor=#d5e8d4;direction=south;" vertex="1" parent="NvqPJ8NiP_3j-MuA9Z-s-68">
          <mxGeometry y="-20" width="40" height="40" as="geometry" />
        </mxCell>
        <mxCell id="NvqPJ8NiP_3j-MuA9Z-s-7" value="Transform&lt;br&gt;(&lt;i&gt;translate)&lt;/i&gt;" style="html=1;whiteSpace=wrap;" vertex="1" parent="NvqPJ8NiP_3j-MuA9Z-s-68">
          <mxGeometry x="40" y="170" width="110" height="50" as="geometry" />
        </mxCell>
        <mxCell id="NvqPJ8NiP_3j-MuA9Z-s-6" value="SdfSegment" style="html=1;whiteSpace=wrap;" vertex="1" parent="NvqPJ8NiP_3j-MuA9Z-s-68">
          <mxGeometry x="40" y="40" width="110" height="50" as="geometry" />
        </mxCell>
        <mxCell id="NvqPJ8NiP_3j-MuA9Z-s-19" value="base0" style="text;html=1;align=center;verticalAlign=middle;resizable=0;points=[];autosize=1;strokeColor=none;fillColor=none;" vertex="1" parent="NvqPJ8NiP_3j-MuA9Z-s-68">
          <mxGeometry x="30" y="10" width="60" height="30" as="geometry" />
        </mxCell>
        <mxCell id="NvqPJ8NiP_3j-MuA9Z-s-13" value="" style="ellipse;whiteSpace=wrap;html=1;align=center;aspect=fixed;fillColor=none;strokeColor=none;resizable=0;perimeter=centerPerimeter;rotatable=0;allowArrows=0;points=[];outlineConnect=1;" vertex="1" parent="NvqPJ8NiP_3j-MuA9Z-s-68">
          <mxGeometry x="90" y="120" width="10" height="10" as="geometry" />
        </mxCell>
        <mxCell id="NvqPJ8NiP_3j-MuA9Z-s-11" value="" style="rounded=0;orthogonalLoop=1;jettySize=auto;html=1;endArrow=halfCircle;endFill=0;endSize=6;strokeWidth=1;sketch=0;exitX=0.5;exitY=0;exitDx=0;exitDy=0;" edge="1" target="NvqPJ8NiP_3j-MuA9Z-s-13" parent="NvqPJ8NiP_3j-MuA9Z-s-68" source="NvqPJ8NiP_3j-MuA9Z-s-7">
          <mxGeometry relative="1" as="geometry">
            <mxPoint x="450" y="95" as="sourcePoint" />
          </mxGeometry>
        </mxCell>
        <mxCell id="NvqPJ8NiP_3j-MuA9Z-s-12" value="" style="rounded=0;orthogonalLoop=1;jettySize=auto;html=1;endArrow=oval;endFill=0;sketch=0;sourcePerimeterSpacing=0;targetPerimeterSpacing=0;endSize=10;exitX=0.5;exitY=1;exitDx=0;exitDy=0;" edge="1" target="NvqPJ8NiP_3j-MuA9Z-s-13" parent="NvqPJ8NiP_3j-MuA9Z-s-68" source="NvqPJ8NiP_3j-MuA9Z-s-6">
          <mxGeometry relative="1" as="geometry">
            <mxPoint x="410" y="95" as="sourcePoint" />
          </mxGeometry>
        </mxCell>
        <mxCell id="NvqPJ8NiP_3j-MuA9Z-s-69" value="" style="swimlane;startSize=0;fillColor=#d5e8d4;strokeColor=#82b366;swimlaneFillColor=none;rounded=0;shadow=0;" vertex="1" parent="1">
          <mxGeometry x="-400" y="290" width="400" height="320" as="geometry" />
        </mxCell>
        <mxCell id="NvqPJ8NiP_3j-MuA9Z-s-70" value="2" style="ellipse;whiteSpace=wrap;html=1;aspect=fixed;strokeWidth=2;fontFamily=Tahoma;spacingBottom=4;spacingRight=2;strokeColor=#82b366;fillColor=#d5e8d4;direction=south;" vertex="1" parent="NvqPJ8NiP_3j-MuA9Z-s-69">
          <mxGeometry y="-20" width="40" height="40" as="geometry" />
        </mxCell>
        <mxCell id="NvqPJ8NiP_3j-MuA9Z-s-71" value="" style="swimlane;startSize=0;fillColor=#d5e8d4;strokeColor=#82b366;swimlaneFillColor=none;rounded=0;shadow=0;" vertex="1" parent="1">
          <mxGeometry x="50" y="290" width="360" height="430" as="geometry" />
        </mxCell>
        <mxCell id="NvqPJ8NiP_3j-MuA9Z-s-72" value="3" style="ellipse;whiteSpace=wrap;html=1;aspect=fixed;strokeWidth=2;fontFamily=Tahoma;spacingBottom=4;spacingRight=2;strokeColor=#82b366;fillColor=#d5e8d4;direction=south;" vertex="1" parent="NvqPJ8NiP_3j-MuA9Z-s-71">
          <mxGeometry y="-20" width="40" height="40" as="geometry" />
        </mxCell>
      </root>
    </mxGraphModel>
  </diagram>
</mxfile>
